<?xml version="1.0" encoding="UTF-8" standalone="no"?>
<!-- Created with Inkscape (http://www.inkscape.org/) -->

<svg
   width="1200"
   height="300"
   viewBox="0 0 317.49999 79.375002"
   version="1.1"
   id="svg1"
   xml:space="preserve"
   inkscape:version="1.4 (86a8ad7, 2024-10-11)"
   sodipodi:docname="full-banner.svg"
   inkscape:export-filename="full-banner.png"
   inkscape:export-xdpi="96"
   inkscape:export-ydpi="96"
   xmlns:inkscape="http://www.inkscape.org/namespaces/inkscape"
   xmlns:sodipodi="http://sodipodi.sourceforge.net/DTD/sodipodi-0.dtd"
   xmlns="http://www.w3.org/2000/svg"
   xmlns:svg="http://www.w3.org/2000/svg"><sodipodi:namedview
     id="namedview1"
     pagecolor="#ffffff"
     bordercolor="#000000"
     borderopacity="0.25"
     inkscape:showpageshadow="2"
     inkscape:pageopacity="0.0"
     inkscape:pagecheckerboard="0"
     inkscape:deskcolor="#d1d1d1"
     inkscape:document-units="mm"
     inkscape:zoom="1.0877315"
     inkscape:cx="556.20344"
     inkscape:cy="261.55352"
     inkscape:window-width="2498"
     inkscape:window-height="1417"
     inkscape:window-x="54"
     inkscape:window-y="-8"
     inkscape:window-maximized="1"
     inkscape:current-layer="svg1" /><defs
     id="defs1" /><g
     inkscape:groupmode="layer"
     id="layer6-1"
     inkscape:label="alet shadow"
     transform="matrix(1.0440496,0,0,0.98604353,6.2974503,-1.3816923)"
     style="fill:#dfdede;fill-opacity:1"><path
       id="path2-1"
       style="fill:#dfdede;fill-opacity:1;stroke:none;stroke-width:0.705406"
       d="m 98.484845,14.679358 c -0.246023,0.13329 -0.302109,0.442858 -0.431255,0.672967 -1.343073,2.979926 -2.618214,5.989732 -3.916923,8.989168 -5.399448,12.574181 -10.751154,25.171372 -16.070826,37.779942 -1.746226,4.159346 -3.509587,8.311563 -5.205691,12.49158 -0.125954,0.357436 -0.214184,0.615544 -0.620874,1.67087 1.134399,-0.0081 2.74278,-0.01842 3.852866,0.0078 2.588303,-0.0064 4.995526,0.0057 7.488172,0.0075 2.018535,-4.83674 4.139823,-10.004356 6.161494,-14.839855 9.005136,0.04057 18.010272,0.08139 27.015402,0.122473 2.03134,4.82333 4.06283,9.646602 6.0942,14.469917 3.97892,0.0012 7.95783,0.0029 11.93674,0.0052 -0.59819,-1.604256 -1.31067,-3.161363 -1.97955,-4.736277 -7.64634,-17.741527 -15.32831,-35.467996 -22.96938,-53.211778 -0.47321,-1.099942 -0.99476,-2.296545 -1.48029,-3.3911 -3.1463,-0.0134 -6.05858,-0.03059 -9.874085,-0.03838 z m 4.788955,14.62428 c 0.6865,1.43582 1.27656,2.915288 1.90713,4.376066 2.17916,5.145532 4.34571,10.303766 6.48321,15.459191 0.22962,0.559501 0.46164,1.118034 0.68972,1.678157 -0.69747,0.02053 -1.45207,0.03154 -2.17196,0.04134 -4.7988,0.04131 -9.59832,0.04248 -14.396824,-0.03074 -0.602403,-0.0163 -1.170448,-0.01737 -1.77066,-0.05918 0.885526,-2.270644 1.843262,-4.512477 2.782572,-6.761266 1.672876,-3.968001 3.354042,-7.932703 5.069152,-11.88263 0.43146,-0.974172 0.86946,-1.945765 1.33945,-2.902075 0.009,-0.06622 0.044,0.04285 0.0682,0.08113 z"
       sodipodi:nodetypes="ccccccccccccccccscccccccccss" /><path
       id="path6-5"
       style="fill:#dfdede;fill-opacity:1;stroke:none;stroke-width:0.705406"
       d="m 142.04144,15.446085 c 0,20.203418 0,40.406837 0,60.610253 14.13643,0 28.27286,0 42.4093,0 0,-3.677123 0,-7.354244 0,-11.031368 -10.21609,0 -20.43217,0 -30.64826,0 0,-16.702682 0,-33.405368 0,-50.108051 -3.92035,0 -7.84069,0 -11.76104,0 0,0.176389 0,0.352778 0,0.529166 z" /><path
       id="path7-2"
       style="fill:#dfdede;fill-opacity:1;stroke:none;stroke-width:0.705406"
       d="m 191.69266,15.446085 c 0,20.203418 0,40.406837 0,60.610253 15.19063,0 30.38126,0 45.57189,0 0,-3.677123 0,-7.354244 0,-11.031368 -11.27028,0 -22.54057,0 -33.81086,0 0,-4.755438 0,-9.510874 0,-14.266312 9.89191,0 19.78381,0 29.67571,0 0,-3.51486 0,-7.029717 0,-10.544577 -9.8919,0 -19.7838,0 -29.67571,0 0,-4.836395 0,-9.672793 0,-14.50919 11.10803,0 22.21605,0 33.32407,0 0,-3.595991 0,-7.191982 0,-10.787972 -15.02837,0 -30.05674,0 -45.0851,0 0,0.176389 0,0.352778 0,0.529166 z" /><path
       id="path8-7"
       style="display:inline;fill:#dfdede;fill-opacity:1;stroke:none;stroke-width:0.705406"
       d="m 243.86207,15.394926 v 10.79624 h 19.51665 c -0.12052,16.621727 -0.24188,33.243447 -0.36227,49.865172 h 11.57968 c 0,-16.621723 -3e-5,-33.243448 0,-49.865172 h 19.49233 c -0.0132,-3.490414 -0.0303,-7.895022 0.036,-11.213633 -7.4798,-0.05162 -14.325,0.02658 -21.38946,-0.0092 -9.62433,-0.03832 -19.24866,-0.06903 -28.87298,-0.1046 z"
       sodipodi:nodetypes="ccccccccccc" /></g><g
     inkscape:groupmode="layer"
     id="layer6"
     inkscape:label="alet"
     transform="matrix(1.0440496,0,0,0.98604353,1.5803887,1.0648666)"><path
       id="path2"
       style="fill:#2a2828;fill-opacity:1;stroke:none;stroke-width:0.705406"
       d="m 98.484845,14.679358 c -0.246023,0.13329 -0.302109,0.442858 -0.431255,0.672967 -1.343073,2.979926 -2.618214,5.989732 -3.916923,8.989168 -5.399448,12.574181 -10.751154,25.171372 -16.070826,37.779942 -1.746226,4.159346 -3.509587,8.311563 -5.205691,12.49158 -0.125954,0.357436 -0.214184,0.615544 -0.620874,1.67087 1.134399,-0.0081 2.74278,-0.01842 3.852866,0.0078 2.588303,-0.0064 4.995526,0.0057 7.488172,0.0075 2.018535,-4.83674 4.139823,-10.004356 6.161494,-14.839855 9.005136,0.04057 18.010272,0.08139 27.015402,0.122473 2.03134,4.82333 4.06283,9.646602 6.0942,14.469917 3.97892,0.0012 7.95783,0.0029 11.93674,0.0052 -0.59819,-1.604256 -1.31067,-3.161363 -1.97955,-4.736277 -7.64634,-17.741527 -15.32831,-35.467996 -22.96938,-53.211778 -0.47321,-1.099942 -0.99476,-2.296545 -1.48029,-3.3911 -3.1463,-0.0134 -6.05858,-0.03059 -9.874085,-0.03838 z m 4.788955,14.62428 c 0.6865,1.43582 1.27656,2.915288 1.90713,4.376066 2.17916,5.145532 4.34571,10.303766 6.48321,15.459191 0.22962,0.559501 0.46164,1.118034 0.68972,1.678157 -0.69747,0.02053 -1.45207,0.03154 -2.17196,0.04134 -4.7988,0.04131 -9.59832,0.04248 -14.396824,-0.03074 -0.602403,-0.0163 -1.170448,-0.01737 -1.77066,-0.05918 0.885526,-2.270644 1.843262,-4.512477 2.782572,-6.761266 1.672876,-3.968001 3.354042,-7.932703 5.069152,-11.88263 0.43146,-0.974172 0.86946,-1.945765 1.33945,-2.902075 0.009,-0.06622 0.044,0.04285 0.0682,0.08113 z"
       sodipodi:nodetypes="ccccccccccccccccscccccccccss" /><path
       id="path6"
       style="fill:#2c2c2c;fill-opacity:1;stroke:none;stroke-width:0.705406"
       d="m 142.04144,15.446085 c 0,20.203418 0,40.406837 0,60.610253 14.13643,0 28.27286,0 42.4093,0 0,-3.677123 0,-7.354244 0,-11.031368 -10.21609,0 -20.43217,0 -30.64826,0 0,-16.702682 0,-33.405368 0,-50.108051 -3.92035,0 -7.84069,0 -11.76104,0 0,0.176389 0,0.352778 0,0.529166 z" /><path
       id="path7"
       style="fill:#363636;fill-opacity:1;stroke:none;stroke-width:0.705406"
       d="m 191.69266,15.446085 c 0,20.203418 0,40.406837 0,60.610253 15.19063,0 30.38126,0 45.57189,0 0,-3.677123 0,-7.354244 0,-11.031368 -11.27028,0 -22.54057,0 -33.81086,0 0,-4.755438 0,-9.510874 0,-14.266312 9.89191,0 19.78381,0 29.67571,0 0,-3.51486 0,-7.029717 0,-10.544577 -9.8919,0 -19.7838,0 -29.67571,0 0,-4.836395 0,-9.672793 0,-14.50919 11.10803,0 22.21605,0 33.32407,0 0,-3.595991 0,-7.191982 0,-10.787972 -15.02837,0 -30.05674,0 -45.0851,0 0,0.176389 0,0.352778 0,0.529166 z" /><path
       id="path8"
       style="display:inline;fill:#515151;fill-opacity:1;stroke:none;stroke-width:0.705406"
       d="m 243.86207,15.394926 v 10.79624 h 19.51665 c -0.12052,16.621727 -0.24188,33.243447 -0.36227,49.865172 h 11.57968 c 0,-16.621723 -3e-5,-33.243448 0,-49.865172 h 19.49233 c -0.0132,-3.490414 -0.0303,-7.895022 0.036,-11.213633 -7.4798,-0.05162 -14.325,0.02658 -21.38946,-0.0092 -9.62433,-0.03832 -19.24866,-0.06903 -28.87298,-0.1046 z"
       sodipodi:nodetypes="ccccccccccc" /></g><g
     inkscape:groupmode="layer"
     id="layer5"
     inkscape:label="head"><path
       id="path5"
       style="fill:#b3b3b3;stroke-width:0.264583"
       d="M 39.6875,2.9104167 V 42.006222 L 51.703304,15.610417 h 0.02894 c 0.0013,-0.02065 1.628024,-3.807438 1.739625,-5.408764 0.08349,-1.198038 -0.461667,-7.278834 -0.461667,-7.278834 L 42.333334,2.912999 v -0.00258 z"
       sodipodi:nodetypes="ccccscccc" /><path
       id="path5-9"
       style="fill:#e6e6e6;stroke-width:0.267504"
       d="M 39.71395,2.9104167 V 42.270879 L 27.513832,15.696387 h -0.02941 c -0.0013,-0.02075 -1.652993,-3.833208 -1.766306,-5.445378 -0.08477,-1.2061468 0.468746,-7.3281063 0.468746,-7.3281063 l 10.840645,-0.0099 v -0.0026 z"
       sodipodi:nodetypes="ccccscccc" /></g><g
     inkscape:groupmode="layer"
     id="layer4"
     inkscape:label="papillon"><path
       id="path4"
       style="fill:#1a1a1a;stroke-width:0.197476"
       inkscape:transform-center-x="-1.1024298"
       d="m 33.602084,14.552083 v 3.96875 3.96875 l 3.307291,-1.984375 2.778125,-1.667081 2.778125,1.667081 3.307291,1.984375 v -3.96875 -3.96875 L 42.465625,16.536458 39.6875,18.20354 36.909375,16.536458 Z" /></g><g
     inkscape:groupmode="layer"
     id="layer3"
     inkscape:label="arm"><rect
       style="fill:#666666;stroke-width:0.264872"
       id="rect3"
       width="15.610416"
       height="26.458334"
       x="61.647915"
       y="15.610416" /><path
       id="path3"
       style="fill:#cccccc;stroke-width:0.255387"
       d="m 61.647917,42.06875 v 4.233333 H 73.025 a 4.2333331,4.2333331 0 0 0 4.233333,-4.233333 z" /></g><g
     inkscape:groupmode="layer"
     id="layer2"
     inkscape:label="body"><path
       id="rect2"
       style="fill:#1a1a1a;stroke-width:0.309696"
       d="m 4.7625,15.610417 v 5.932401 l 22.120336,48.591726 -0.07171,0.156906 0.180558,0.08234 2.531929,5.561626 h 20.273493 l 2.532445,-5.562662 0.179526,-0.08182 -0.07119,-0.156389 24.820441,-54.524127 H 51.703278 L 39.660104,42.065941 27.616931,15.610417 Z" /></g></svg>
